<svg width="22" height="22" viewBox="0 0 22 22" fill="none" xmlns="http://www.w3.org/2000/svg">
<path d="M5.65039 19.312V17.65C5.65039 17.1196 5.8611 16.6109 6.23618 16.2358C6.61125 15.8607 7.11996 15.65 7.65039 15.65L13.6504 15.65C14.1808 15.65 14.6895 15.8607 15.0646 16.2358C15.4397 16.6109 15.6504 17.1196 15.6504 17.65L15.6504 19.312M20.6504 10.65C20.6504 16.1729 16.1732 20.65 10.6504 20.65C5.12754 20.65 0.650391 16.1729 0.650391 10.65C0.650391 5.12718 5.12754 0.650024 10.6504 0.650024C16.1732 0.650024 20.6504 5.12718 20.6504 10.65ZM13.6504 8.65002C13.6504 10.3069 12.3072 11.65 10.6504 11.65C8.99354 11.65 7.65039 10.3069 7.65039 8.65002C7.65039 6.99317 8.99354 5.65002 10.6504 5.65002C12.3072 5.65002 13.6504 6.99317 13.6504 8.65002Z" stroke="#7C7C7C" stroke-width="1.3" stroke-linecap="round" stroke-linejoin="round"/>
</svg>
